<svg width="20" height="20" viewBox="0 0 20 20" fill="none" xmlns="http://www.w3.org/2000/svg">
<path fill-rule="evenodd" clip-rule="evenodd" d="M1.21967 1.21967C1.51256 0.926777 1.98744 0.926777 2.28033 1.21967L10 8.93934L17.7197 1.21967C18.0126 0.926777 18.4874 0.926777 18.7803 1.21967C19.0732 1.51256 19.0732 1.98744 18.7803 2.28033L11.0607 10L18.7803 17.7197C19.0732 18.0126 19.0732 18.4874 18.7803 18.7803C18.4874 19.0732 18.0126 19.0732 17.7197 18.7803L10 11.0607L2.28033 18.7803C1.98744 19.0732 1.51256 19.0732 1.21967 18.7803C0.926777 18.4874 0.926777 18.0126 1.21967 17.7197L8.93934 10L1.21967 2.28033C0.926777 1.98744 0.926777 1.51256 1.21967 1.21967Z" fill="#E0E0E0"/>
</svg>
