<svg width="27" height="27" viewBox="0 0 27 27" fill="none" xmlns="http://www.w3.org/2000/svg">
<path fill-rule="evenodd" clip-rule="evenodd" d="M18.8159 8.37082L16.7698 3.45142C15.745 0.987547 12.2547 0.987545 11.2299 3.45142L9.18381 8.37082L3.8729 8.7966C1.21294 9.00985 0.134366 12.3294 2.16097 14.0654L6.20732 17.5315L4.9711 22.7141C4.35194 25.3097 7.17569 27.3613 9.45299 25.9703L13.9999 23.1931L18.5467 25.9703C20.824 27.3613 23.6478 25.3097 23.0286 22.7141L21.7924 17.5315L25.8388 14.0654C27.8654 12.3294 26.7868 9.00985 24.1268 8.7966L18.8159 8.37082ZM14.9232 4.21949C14.5816 3.39819 13.4181 3.39819 13.0765 4.21948L10.7959 9.70285C10.6519 10.0491 10.3263 10.2857 9.95248 10.3156L4.03273 10.7902C3.14608 10.8613 2.78655 11.9678 3.46209 12.5465L7.97231 16.4099C8.2571 16.6539 8.38147 17.0367 8.29446 17.4014L6.91652 23.1781C6.71013 24.0433 7.65138 24.7272 8.41048 24.2635L13.4786 21.1679C13.7986 20.9725 14.2011 20.9725 14.5211 21.1679L19.5893 24.2635C20.3484 24.7272 21.2896 24.0433 21.0832 23.1781L19.7053 17.4014C19.6183 17.0367 19.7426 16.6539 20.0274 16.4099L24.5376 12.5465C25.2132 11.9678 24.8537 10.8613 23.967 10.7902L18.0473 10.3156C17.6735 10.2857 17.3479 10.0491 17.2038 9.70285L14.9232 4.21949Z" fill="#DBF379"/>
</svg>
