<svg width="27" height="27" fill="none" xmlns="http://www.w3.org/2000/svg"><path fill-rule="evenodd" clip-rule="evenodd" d="M18.816 8.37L16.77 3.452c-1.025-2.463-4.515-2.463-5.54 0l-2.046 4.92-5.311.426c-2.66.213-3.739 3.532-1.712 5.268l4.046 3.467-1.236 5.182c-.62 2.596 2.205 4.647 4.482 3.256L14 23.193l4.547 2.777c2.277 1.391 5.1-.66 4.482-3.256l-1.237-5.182 4.047-3.467c2.026-1.736.948-5.055-1.712-5.268l-5.311-.426zm-3.893-4.15c-.341-.822-1.505-.822-1.847 0l-2.28 5.483a1 1 0 01-.844.613l-5.92.474c-.886.071-1.245 1.178-.57 1.757l4.51 3.863a1 1 0 01.322.991l-1.377 5.777c-.207.865.734 1.55 1.493 1.085l5.069-3.095a1 1 0 011.042 0l5.068 3.096c.76.463 1.7-.22 1.494-1.086l-1.378-5.777a1 1 0 01.322-.991l4.51-3.864c.676-.578.317-1.685-.57-1.756l-5.92-.474a1 1 0 01-.843-.613l-2.28-5.484z" fill="#DBF379"/></svg>